REM DIRINDEX 1\2,1\3,1\4
REM DIRNAME folder01,folder02,folder03,folder04
TITLE ""
FILE "063 063_TOEFL_3900.mp3" MP3
  TRACK 01 AUDIO
    TITLE "2:cjc151_2720"
    INDEX 01 00:00:00
  TRACK 02 AUDIO
    TITLE "0:"
    INDEX 01 00:01:15
  TRACK 03 AUDIO
    TITLE "3:cjc151_2721"
    INDEX 01 00:02:69
  TRACK 04 AUDIO
    TITLE "0:"
    INDEX 01 00:07:23
  TRACK 05 AUDIO
    TITLE "2:cjc151_2722"
    INDEX 01 00:09:02
  TRACK 06 AUDIO
    TITLE "0:"
    INDEX 01 00:10:00
  TRACK 07 AUDIO
    TITLE "3:cjc151_2723"
    INDEX 01 00:11:52
  TRACK 08 AUDIO
    TITLE "0:"
    INDEX 01 00:15:42
  TRACK 09 AUDIO
    TITLE "2:cjc151_2724"
    INDEX 01 00:17:20
  TRACK 10 AUDIO
    TITLE "0:"
    INDEX 01 00:18:27
  TRACK 11 AUDIO
    TITLE "3:cjc151_2725"
    INDEX 01 00:20:02
  TRACK 12 AUDIO
    TITLE "0:"
    INDEX 01 00:24:02
  TRACK 13 AUDIO
    TITLE "2:cjc151_2726"
    INDEX 01 00:25:54
  TRACK 14 AUDIO
    TITLE "0:"
    INDEX 01 00:27:06
  TRACK 15 AUDIO
    TITLE "3:cjc151_2727"
    INDEX 01 00:28:60
  TRACK 16 AUDIO
    TITLE "0:"
    INDEX 01 00:32:66
  TRACK 17 AUDIO
    TITLE "2:cjc151_2728"
    INDEX 01 00:34:45
  TRACK 18 AUDIO
    TITLE "0:"
    INDEX 01 00:35:55
  TRACK 19 AUDIO
    TITLE "3:cjc151_2729"
    INDEX 01 00:37:32
  TRACK 20 AUDIO
    TITLE "0:"
    INDEX 01 00:40:60
  TRACK 21 AUDIO
    TITLE "2:cjc151_2730"
    INDEX 01 00:42:39
  TRACK 22 AUDIO
    TITLE "0:"
    INDEX 01 00:43:35
  TRACK 23 AUDIO
    TITLE "3:cjc151_2731"
    INDEX 01 00:45:16
  TRACK 24 AUDIO
    TITLE "0:"
    INDEX 01 00:48:67
  TRACK 25 AUDIO
    TITLE "2:cjc151_2732"
    INDEX 01 00:50:44
  TRACK 26 AUDIO
    TITLE "0:"
    INDEX 01 00:51:32
  TRACK 27 AUDIO
    TITLE "3:cjc151_2733"
    INDEX 01 00:53:11
  TRACK 28 AUDIO
    TITLE "0:"
    INDEX 01 00:56:53
  TRACK 29 AUDIO
    TITLE "2:cjc151_2734"
    INDEX 01 00:58:48
  TRACK 30 AUDIO
    TITLE "0:"
    INDEX 01 00:59:45
  TRACK 31 AUDIO
    TITLE "3:cjc151_2735"
    INDEX 01 01:01:25
  TRACK 32 AUDIO
    TITLE "0:"
    INDEX 01 01:04:23
  TRACK 33 AUDIO
    TITLE "2:cjc151_2736"
    INDEX 01 01:06:04
  TRACK 34 AUDIO
    TITLE "0:"
    INDEX 01 01:07:06
  TRACK 35 AUDIO
    TITLE "3:cjc151_2737"
    INDEX 01 01:08:60
  TRACK 36 AUDIO
    TITLE "0:"
    INDEX 01 01:12:42
  TRACK 37 AUDIO
    TITLE "2:cjc151_2738"
    INDEX 01 01:14:27
  TRACK 38 AUDIO
    TITLE "0:"
    INDEX 01 01:15:40
  TRACK 39 AUDIO
    TITLE "3:cjc151_2739"
    INDEX 01 01:17:18
  TRACK 40 AUDIO
    TITLE "0:"
    INDEX 01 01:20:36
  TRACK 41 AUDIO
    TITLE "2:cjc151_2740"
    INDEX 01 01:22:15
  TRACK 42 AUDIO
    TITLE "0:"
    INDEX 01 01:23:15
  TRACK 43 AUDIO
    TITLE "3:cjc151_2741"
    INDEX 01 01:24:65
  TRACK 44 AUDIO
    TITLE "0:"
    INDEX 01 01:28:37
  TRACK 45 AUDIO
    TITLE "2:cjc151_2742"
    INDEX 01 01:30:15
  TRACK 46 AUDIO
    TITLE "0:"
    INDEX 01 01:31:34
  TRACK 47 AUDIO
    TITLE "3:cjc151_2743"
    INDEX 01 01:33:11
  TRACK 48 AUDIO
    TITLE "0:"
    INDEX 01 01:36:03
  TRACK 49 AUDIO
    TITLE "2:cjc151_2744"
    INDEX 01 01:37:58
  TRACK 50 AUDIO
    TITLE "0:"
    INDEX 01 01:38:53
  TRACK 51 AUDIO
    TITLE "3:cjc151_2745"
    INDEX 01 01:40:31
  TRACK 52 AUDIO
    TITLE "0:"
    INDEX 01 01:44:24
  TRACK 53 AUDIO
    TITLE "2:cjc151_2746"
    INDEX 01 01:46:02
  TRACK 54 AUDIO
    TITLE "0:"
    INDEX 01 01:47:17
  TRACK 55 AUDIO
    TITLE "3:cjc151_2747"
    INDEX 01 01:48:69
  TRACK 56 AUDIO
    TITLE "0:"
    INDEX 01 01:52:30
  TRACK 57 AUDIO
    TITLE "2:cjc151_2748"
    INDEX 01 01:54:09
  TRACK 58 AUDIO
    TITLE "0:"
    INDEX 01 01:55:15
  TRACK 59 AUDIO
    TITLE "3:cjc151_2749"
    INDEX 01 01:56:67
  TRACK 60 AUDIO
    TITLE "0:"
    INDEX 01 02:00:08
  TRACK 61 AUDIO
    TITLE "2:cjc151_2750"
    INDEX 01 02:01:62
  TRACK 62 AUDIO
    TITLE "0:"
    INDEX 01 02:02:60
  TRACK 63 AUDIO
    TITLE "3:cjc151_2751"
    INDEX 01 02:04:41
  TRACK 64 AUDIO
    TITLE "0:"
    INDEX 01 02:08:25
  TRACK 65 AUDIO
    TITLE "2:cjc151_2752"
    INDEX 01 02:10:04
  TRACK 66 AUDIO
    TITLE "0:"
    INDEX 01 02:11:04
  TRACK 67 AUDIO
    TITLE "3:cjc151_2753"
    INDEX 01 02:12:58
  TRACK 68 AUDIO
    TITLE "0:"
    INDEX 01 02:16:03
  TRACK 69 AUDIO
    TITLE "2:cjc151_2754"
    INDEX 01 02:17:71
  TRACK 70 AUDIO
    TITLE "0:"
    INDEX 01 02:19:05
  TRACK 71 AUDIO
    TITLE "3:cjc151_2755"
    INDEX 01 02:20:60
  TRACK 72 AUDIO
    TITLE "0:"
    INDEX 01 02:25:21
  TRACK 73 AUDIO
    TITLE "2:cjc151_2756"
    INDEX 01 02:27:01
  TRACK 74 AUDIO
    TITLE "0:"
    INDEX 01 02:28:06
  TRACK 75 AUDIO
    TITLE "3:cjc151_2757"
    INDEX 01 02:29:60
  TRACK 76 AUDIO
    TITLE "0:"
    INDEX 01 02:35:71
  TRACK 77 AUDIO
    TITLE "2:cjc151_2758"
    INDEX 01 02:37:54
  TRACK 78 AUDIO
    TITLE "0:"
    INDEX 01 02:38:61
  TRACK 79 AUDIO
    TITLE "3:cjc151_2759"
    INDEX 01 02:40:37
  TRACK 80 AUDIO
    TITLE "0:"
    INDEX 01 02:44:15
  TRACK 81 AUDIO
    TITLE "2:cjc151_2760"
    INDEX 01 02:45:67
  TRACK 82 AUDIO
    TITLE "0:"
    INDEX 01 02:47:13
  TRACK 83 AUDIO
    TITLE "3:cjc151_2761"
    INDEX 01 02:48:68
  TRACK 84 AUDIO
    TITLE "0:"
    INDEX 01 02:53:63
  TRACK 85 AUDIO
    TITLE "2:cjc151_2762"
    INDEX 01 02:55:42
  TRACK 86 AUDIO
    TITLE "0:"
    INDEX 01 02:56:46
  TRACK 87 AUDIO
    TITLE "3:cjc151_2763"
    INDEX 01 02:58:25
  TRACK 88 AUDIO
    TITLE "0:"
    INDEX 01 03:02:62
